<svg width="26" height="27" viewBox="0 0 26 27" fill="none" xmlns="http://www.w3.org/2000/svg">
<path d="M23.0485 2.4717C23.1506 2.5814 23.1506 2.75138 23.0485 2.86108L16.396 10.0063L16.0057 9.58699L22.6302 2.47171C22.7432 2.35034 22.9355 2.35034 23.0485 2.4717ZM2.45732 24.1389L9.10974 16.9937L9.50011 17.413L2.87554 24.5283C2.76254 24.6497 2.57031 24.6497 2.45732 24.5283L0.714909 26.1505L2.45732 24.5283C2.35519 24.4186 2.35519 24.2486 2.45732 24.1389ZM16.396 16.9937L23.0485 24.1389C23.1506 24.2486 23.1506 24.4186 23.0485 24.5283C22.9355 24.6497 22.7432 24.6497 22.6302 24.5283L16.0057 17.413L16.396 16.9937ZM13.1433 13.5L12.7529 13.9193L12.3625 13.5L12.7529 13.0807L13.1433 13.5ZM2.87553 2.4717L9.50011 9.58699L9.10974 10.0063L2.45731 2.86108C2.35518 2.75138 2.35518 2.5814 2.45731 2.47171C2.57031 2.35034 2.76254 2.35034 2.87553 2.4717Z" fill="white" stroke="#FF0000" stroke-width="4.68175"/>
</svg>
