<svg width="14" height="22" viewBox="0 0 14 22" fill="none" xmlns="http://www.w3.org/2000/svg">
<g clip-path="url(#clip0_77_786)">
<path d="M12.6 12.3749H1.39998C0.157481 12.3749 -0.472519 13.8573 0.411231 14.721L6.01123 20.221C6.55811 20.7581 7.44623 20.7581 7.99311 20.221L13.5931 14.721C14.4681 13.8573 13.8425 12.3749 12.6 12.3749ZM6.99998 19.2499L1.39998 13.7499H12.6L6.99998 19.2499ZM1.39998 9.6249H12.6C13.8425 9.6249 14.4725 8.14248 13.5887 7.27881L7.98873 1.77881C7.44186 1.2417 6.55373 1.2417 6.00686 1.77881L0.406856 7.27881C-0.468144 8.14248 0.157481 9.6249 1.39998 9.6249ZM6.99998 2.7499L12.6 8.2499H1.39998L6.99998 2.7499Z" fill="#FEAF00"/>
</g>
<defs>
<clipPath id="clip0_77_786">
<rect width="14" height="22" fill="white"/>
</clipPath>
</defs>
</svg>
