<svg width="24" height="21" viewBox="0 0 24 21" fill="none" xmlns="http://www.w3.org/2000/svg">
<path d="M17.1527 13.1784H16.0686L15.6844 12.8549C17.0292 11.4891 17.8388 9.71604 17.8388 7.78721C17.8388 3.48627 13.8457 0 8.9194 0C3.99315 0 0 3.48627 0 7.78721C0 12.0881 3.99315 15.5744 8.9194 15.5744C11.1287 15.5744 13.1595 14.8676 14.7239 13.6935L15.0944 14.029V14.9754L21.9554 20.9536L24 19.1685L17.1527 13.1784ZM8.9194 13.1784C5.50258 13.1784 2.74443 10.7703 2.74443 7.78721C2.74443 4.80411 5.50258 2.39606 8.9194 2.39606C12.3362 2.39606 15.0944 4.80411 15.0944 7.78721C15.0944 10.7703 12.3362 13.1784 8.9194 13.1784Z" fill="black"/>
</svg>
