<svg width="710" height="710" viewBox="0 0 710 710" fill="none" xmlns="http://www.w3.org/2000/svg">
<path d="M355 0L357.813 319.256L410.534 4.37064L363.37 320.136L464.701 17.3749L368.721 321.874L516.167 38.6927L373.734 324.429L563.664 67.799L378.286 327.736L606.023 103.977L382.264 331.714L642.201 146.336L385.571 336.266L671.307 193.833L388.126 341.279L692.625 245.299L389.864 346.63L705.629 299.466L390.744 352.187L710 355L390.744 357.813L705.629 410.534L389.864 363.37L692.625 464.701L388.126 368.721L671.307 516.167L385.571 373.734L642.201 563.664L382.264 378.286L606.023 606.023L378.286 382.264L563.664 642.201L373.734 385.571L516.167 671.307L368.721 388.126L464.701 692.625L363.37 389.864L410.534 705.629L357.813 390.744L355 710L352.187 390.744L299.466 705.629L346.63 389.864L245.299 692.625L341.279 388.126L193.833 671.307L336.266 385.571L146.336 642.201L331.714 382.264L103.977 606.023L327.736 378.286L67.799 563.664L324.429 373.734L38.6927 516.167L321.874 368.721L17.3749 464.701L320.136 363.37L4.37064 410.534L319.256 357.813L0 355L319.256 352.187L4.37064 299.466L320.136 346.63L17.3749 245.299L321.874 341.279L38.6927 193.833L324.429 336.266L67.799 146.336L327.736 331.714L103.977 103.977L331.714 327.736L146.336 67.799L336.266 324.429L193.833 38.6927L341.279 321.874L245.299 17.3749L346.63 320.136L299.466 4.37064L352.187 319.256L355 0Z" fill="url(#paint0_radial_26_2909)"/>
<defs>
<radialGradient id="paint0_radial_26_2909" cx="0" cy="0" r="1" gradientUnits="userSpaceOnUse" gradientTransform="translate(355 355) rotate(90) scale(215.5)">
<stop stop-color="#3A795B"/>
<stop offset="1" stop-color="#3A795B" stop-opacity="0"/>
</radialGradient>
</defs>
</svg>
