<svg width="31" height="29" viewBox="0 0 31 29" fill="none" xmlns="http://www.w3.org/2000/svg">
<g clip-path="url(#clip0_112_209)">
<path d="M0.72016 29C0.546088 29 0.376746 28.9356 0.251159 28.8168C0.0856015 28.6602 0.0217436 28.4327 0.083946 28.2201L2.09926 21.3356C0.844565 19.2131 0.183044 16.8121 0.18399 14.3748C0.187538 6.4484 7.08278 0 15.5551 0C19.6644 0.00154877 23.5257 1.49899 26.4279 4.21597C29.3297 6.93317 30.9271 10.5451 30.9259 14.3863C30.9221 22.3129 24.0269 28.7617 15.5551 28.7617C15.5551 28.7617 15.5487 28.7617 15.5484 28.7617C13.0738 28.7608 10.6205 28.1966 8.43609 27.128L0.887373 28.9799C0.83203 28.9934 0.77574 29 0.72016 29Z" fill="#E5E5E5"/>
<path d="M0.720215 28.3829L2.80719 21.2535C1.51986 19.1668 0.842728 16.7999 0.843674 14.375C0.846985 6.7889 7.44613 0.617083 15.5552 0.617083C19.4902 0.618631 23.1838 2.05146 25.9614 4.65205C28.7388 7.25265 30.2678 10.7095 30.2664 14.386C30.2629 21.9719 23.6628 28.1446 15.5552 28.1446C15.5547 28.1446 15.5554 28.1446 15.5552 28.1446H15.5488C13.0867 28.1437 10.6677 27.566 8.51895 26.4697L0.720215 28.3829ZM8.8801 23.9791L9.32687 24.2267C11.2038 25.2687 13.3558 25.8199 15.5504 25.821H15.5552C22.2943 25.821 27.7795 20.6906 27.7823 14.3851C27.7835 11.3294 26.513 8.45604 24.2044 6.29463C21.8956 4.13322 18.8259 2.94222 15.5597 2.94089C8.81506 2.94089 3.33012 8.07062 3.32752 14.3759C3.32657 16.5366 3.97272 18.6407 5.19691 20.4616L5.48781 20.8944L4.25228 25.1141L8.8801 23.9791Z" fill="white"/>
<path d="M1.23169 27.9026L3.24653 21.0196C2.00342 19.0054 1.34994 16.72 1.35065 14.3794C1.35373 7.05596 7.72463 1.09785 15.5524 1.09785C19.3517 1.0994 22.9176 2.48267 25.5985 4.99323C28.28 7.50378 29.7559 10.8409 29.7544 14.3898C29.7511 21.7135 23.38 27.6723 15.5531 27.6723C15.5524 27.6723 15.5534 27.6723 15.5531 27.6723H15.5468C13.1701 27.6714 10.8345 27.1134 8.76031 26.0558L1.23169 27.9026Z" fill="#64B161"/>
<path d="M0.720215 28.3829L2.80719 21.2535C1.51986 19.1668 0.842728 16.7999 0.843674 14.375C0.846985 6.7889 7.44613 0.617083 15.5552 0.617083C19.4902 0.618631 23.1838 2.05146 25.9614 4.65205C28.7388 7.25265 30.2678 10.7095 30.2664 14.386C30.2629 21.9719 23.6628 28.1446 15.5552 28.1446C15.5547 28.1446 15.5554 28.1446 15.5552 28.1446H15.5488C13.0867 28.1437 10.6677 27.566 8.51895 26.4697L0.720215 28.3829ZM8.8801 23.9791L9.32687 24.2267C11.2038 25.2687 13.3558 25.8199 15.5504 25.821H15.5552C22.2943 25.821 27.7795 20.6906 27.7823 14.3851C27.7835 11.3294 26.513 8.45604 24.2044 6.29463C21.8956 4.13322 18.8259 2.94222 15.5597 2.94089C8.81506 2.94089 3.33012 8.07062 3.32752 14.3759C3.32657 16.5366 3.97272 18.6407 5.19691 20.4616L5.48781 20.8944L4.25228 25.1141L8.8801 23.9791Z" fill="white"/>
<path fill-rule="evenodd" clip-rule="evenodd" d="M11.8783 8.62333C11.603 8.05072 11.313 8.03922 11.051 8.02926C10.8367 8.02063 10.5915 8.02108 10.3467 8.02108C10.1016 8.02108 9.70336 8.10737 9.36657 8.45141C9.02954 8.79546 8.07971 9.62738 8.07971 11.3193C8.07971 13.0114 9.39708 14.6463 9.58085 14.876C9.76461 15.1054 12.1238 18.6884 15.86 20.0668C18.9651 21.2124 19.5968 20.9845 20.2709 20.9272C20.9449 20.8699 22.4456 20.0953 22.7519 19.2924C23.0584 18.4895 23.0584 17.8014 22.9664 17.6573C22.8744 17.5142 22.6294 17.4281 22.2618 17.2562C21.8943 17.0843 20.0871 16.2522 19.7501 16.1375C19.4131 16.0227 19.168 15.9656 18.923 16.3099C18.6778 16.6537 17.9739 17.4281 17.7594 17.6573C17.5449 17.8872 17.3304 17.916 16.9628 17.7438C16.5953 17.5715 15.4113 17.2086 14.0069 16.0371C12.9142 15.1257 12.1763 14 11.9618 13.6557C11.7475 13.3119 11.9583 13.142 12.1233 12.9541C12.4206 12.6158 12.9194 12.0076 13.0419 11.7784C13.1645 11.5487 13.1032 11.3481 13.0114 11.1759C12.9194 11.004 12.2049 9.30346 11.8783 8.62333Z" fill="white"/>
</g>
<defs>
<clipPath id="clip0_112_209">
<rect width="31" height="29" fill="white"/>
</clipPath>
</defs>
</svg>
