<svg width="82" height="29" viewBox="0 0 82 29" fill="none" xmlns="http://www.w3.org/2000/svg">
<g clip-path="url(#clip0_112_668)">
<path d="M0.72016 29C0.546088 29 0.376746 28.9356 0.251159 28.8168C0.0856015 28.6602 0.0217436 28.4327 0.083946 28.2201L2.09926 21.3356C0.844565 19.2131 0.183044 16.8121 0.18399 14.3748C0.187538 6.4484 7.08278 0 15.5551 0C19.6644 0.00154877 23.5257 1.49899 26.4279 4.21597C29.3297 6.93317 30.9271 10.5451 30.9259 14.3863C30.9221 22.3129 24.0269 28.7617 15.5551 28.7617C15.5551 28.7617 15.5487 28.7617 15.5484 28.7617C13.0738 28.7608 10.6205 28.1966 8.43609 27.128L0.887373 28.9799C0.83203 28.9934 0.77574 29 0.72016 29Z" fill="#E5E5E5"/>
<path d="M0.720215 28.383L2.80719 21.2536C1.51986 19.1669 0.842728 16.8 0.843674 14.3751C0.846985 6.78901 7.44613 0.617188 15.5552 0.617188C19.4902 0.618736 23.1838 2.05156 25.9614 4.65216C28.7388 7.25275 30.2678 10.7096 30.2664 14.3861C30.2629 21.972 23.6628 28.1447 15.5552 28.1447C15.5547 28.1447 15.5554 28.1447 15.5552 28.1447H15.5488C13.0867 28.1438 10.6677 27.5661 8.51895 26.4698L0.720215 28.383ZM8.8801 23.9792L9.32687 24.2268C11.2038 25.2689 13.3558 25.82 15.5504 25.8211H15.5552C22.2943 25.8211 27.7795 20.6907 27.7823 14.3853C27.7835 11.3295 26.513 8.45614 24.2044 6.29473C21.8956 4.13332 18.8259 2.94232 15.5597 2.941C8.81506 2.941 3.33012 8.07072 3.32752 14.376C3.32657 16.5367 3.97272 18.6408 5.19691 20.4617L5.48781 20.8945L4.25228 25.1142L8.8801 23.9792Z" fill="white"/>
<path d="M1.23169 27.9024L3.24653 21.0194C2.00342 19.0052 1.34994 16.7198 1.35065 14.3792C1.35373 7.05576 7.72463 1.09766 15.5524 1.09766C19.3517 1.09921 22.9176 2.48248 25.5985 4.99303C28.28 7.50358 29.7559 10.8407 29.7544 14.3896C29.7511 21.7133 23.38 27.6721 15.5531 27.6721C15.5524 27.6721 15.5534 27.6721 15.5531 27.6721H15.5468C13.1701 27.6712 10.8345 27.1132 8.76031 26.0556L1.23169 27.9024Z" fill="#64B161"/>
<path d="M0.720215 28.383L2.80719 21.2536C1.51986 19.1669 0.842728 16.8 0.843674 14.3751C0.846985 6.78901 7.44613 0.617188 15.5552 0.617188C19.4902 0.618736 23.1838 2.05156 25.9614 4.65216C28.7388 7.25275 30.2678 10.7096 30.2664 14.3861C30.2629 21.972 23.6628 28.1447 15.5552 28.1447C15.5547 28.1447 15.5554 28.1447 15.5552 28.1447H15.5488C13.0867 28.1438 10.6677 27.5661 8.51895 26.4698L0.720215 28.383ZM8.8801 23.9792L9.32687 24.2268C11.2038 25.2689 13.3558 25.82 15.5504 25.8211H15.5552C22.2943 25.8211 27.7795 20.6907 27.7823 14.3853C27.7835 11.3295 26.513 8.45614 24.2044 6.29473C21.8956 4.13332 18.8259 2.94232 15.5597 2.941C8.81506 2.941 3.33012 8.07072 3.32752 14.376C3.32657 16.5367 3.97272 18.6408 5.19691 20.4617L5.48781 20.8945L4.25228 25.1142L8.8801 23.9792Z" fill="white"/>
<path fill-rule="evenodd" clip-rule="evenodd" d="M11.8784 8.62325C11.6031 8.05065 11.3132 8.03914 11.0511 8.02919C10.8368 8.02056 10.5916 8.021 10.3468 8.021C10.1018 8.021 9.70348 8.10729 9.36669 8.45134C9.02966 8.79539 8.07983 9.6273 8.07983 11.3192C8.07983 13.0114 9.3972 14.6462 9.58097 14.8759C9.76474 15.1053 12.1239 18.6883 15.8601 20.0667C18.9652 21.2124 19.597 20.9845 20.271 20.9272C20.9451 20.8699 22.4457 20.0952 22.752 19.2923C23.0585 18.4894 23.0585 17.8013 22.9665 17.6573C22.8745 17.5141 22.6295 17.428 22.262 17.2561C21.8944 17.0842 20.0872 16.2521 19.7502 16.1375C19.4132 16.0226 19.1682 15.9656 18.9231 16.3098C18.6779 16.6536 17.974 17.428 17.7595 17.6573C17.545 17.8871 17.3305 17.9159 16.9629 17.7438C16.5954 17.5714 15.4114 17.2086 14.007 16.037C12.9143 15.1257 12.1764 13.9999 11.9619 13.6557C11.7476 13.3118 11.9584 13.1419 12.1235 12.9541C12.4208 12.6158 12.9196 12.0075 13.0421 11.7783C13.1646 11.5487 13.1033 11.348 13.0116 11.1759C12.9196 11.0039 12.2051 9.30339 11.8784 8.62325Z" fill="white"/>
</g>
<path fill-rule="evenodd" clip-rule="evenodd" d="M66.8367 4H75.0867C78.883 4 81.9617 7.07862 81.9617 10.875V19.125C81.9617 22.9214 78.883 26 75.0867 26H66.8367C63.0403 26 59.9617 22.9214 59.9617 19.125V10.875C59.9617 7.07862 63.0403 4 66.8367 4ZM75.0867 23.9375C77.7404 23.9375 79.8992 21.7787 79.8992 19.125V10.875C79.8992 8.22125 77.7404 6.0625 75.0867 6.0625H66.8367C64.1829 6.0625 62.0242 8.22125 62.0242 10.875V19.125C62.0242 21.7787 64.1829 23.9375 66.8367 23.9375H75.0867Z" fill="black"/>
<path fill-rule="evenodd" clip-rule="evenodd" d="M65.4617 15C65.4617 11.9626 67.9243 9.5 70.9617 9.5C73.999 9.5 76.4617 11.9626 76.4617 15C76.4617 18.0374 73.999 20.5 70.9617 20.5C67.9243 20.5 65.4617 18.0374 65.4617 15ZM67.5242 15C67.5242 16.8948 69.0669 18.4375 70.9617 18.4375C72.8564 18.4375 74.3992 16.8948 74.3992 15C74.3992 13.1039 72.8564 11.5625 70.9617 11.5625C69.0669 11.5625 67.5242 13.1039 67.5242 15Z" fill="black"/>
<circle cx="76.8742" cy="9.08737" r="0.732875" fill="black"/>
<defs>
<clipPath id="clip0_112_668">
<rect width="31" height="29" fill="white"/>
</clipPath>
</defs>
</svg>
