<svg width="20" height="20" viewBox="0 0 20 20" fill="none" xmlns="http://www.w3.org/2000/svg">
<path d="M10 0C8.02219 0 6.08879 0.58649 4.4443 1.6853C2.79981 2.78412 1.51809 4.3459 0.761209 6.17317C0.00433285 8.00043 -0.193701 10.0111 0.192152 11.9509C0.578004 13.8907 1.53041 15.6725 2.92894 17.0711C4.32746 18.4696 6.10929 19.422 8.0491 19.8079C9.98891 20.1937 11.9996 19.9957 13.8268 19.2388C15.6541 18.4819 17.2159 17.2002 18.3147 15.5557C19.4135 13.9112 20 11.9778 20 10C19.9969 7.34878 18.9424 4.80702 17.0677 2.93232C15.193 1.05762 12.6512 0.00306424 10 0ZM13.5036 10.64L8.88823 13.7169C8.77241 13.7943 8.63775 13.8388 8.49864 13.8455C8.35952 13.8523 8.22118 13.8212 8.09838 13.7555C7.97558 13.6898 7.87294 13.5919 7.80142 13.4724C7.7299 13.3529 7.69219 13.2162 7.69231 13.0769V6.92308C7.69219 6.7838 7.7299 6.6471 7.80142 6.52759C7.87294 6.40808 7.97558 6.31023 8.09838 6.24452C8.22118 6.1788 8.35952 6.14767 8.49864 6.15446C8.63775 6.16124 8.77241 6.20569 8.88823 6.28305L13.5036 9.35998C13.609 9.43022 13.6954 9.52539 13.7551 9.63704C13.8149 9.74869 13.8462 9.87336 13.8462 10C13.8462 10.1266 13.8149 10.2513 13.7551 10.363C13.6954 10.4746 13.609 10.5698 13.5036 10.64Z" fill="white"/>
</svg>
