<svg width="17" height="20" viewBox="0 0 17 20" fill="none" xmlns="http://www.w3.org/2000/svg">
<path d="M8.46025 5.36338C8.45982 5.34948 8.45931 5.33558 8.45813 5.32159C8.45696 5.30755 8.45522 5.29371 8.45334 5.2799C8.45231 5.27276 8.45203 5.26568 8.45085 5.25849L7.68164 0.643223C7.66509 0.543531 7.62906 0.448078 7.5756 0.362318C7.52214 0.276558 7.45231 0.202172 7.3701 0.14341C7.28788 0.084648 7.19489 0.0426621 7.09645 0.0198517C6.998 -0.00295875 6.89602 -0.00614678 6.79634 0.0104698C6.69666 0.0270863 6.60123 0.0631818 6.5155 0.116694C6.42978 0.170205 6.35544 0.240085 6.29673 0.322338C6.23802 0.404592 6.19609 0.497608 6.17335 0.596071C6.1506 0.694534 6.14748 0.796514 6.16416 0.896184L6.78408 4.61576H4.99987V0.769703C4.99987 0.565696 4.91883 0.370044 4.77458 0.225789C4.63032 0.0815335 4.43467 0.000491844 4.23066 0.000491844C4.02666 0.000491844 3.831 0.0815335 3.68675 0.225789C3.54249 0.370044 3.46145 0.565696 3.46145 0.769703V4.61576H1.67725L2.29716 0.896184C2.31385 0.796514 2.31072 0.694534 2.28798 0.596071C2.26523 0.497608 2.22331 0.404592 2.1646 0.322338C2.10589 0.240085 2.03155 0.170205 1.94582 0.116694C1.8601 0.0631818 1.76467 0.0270863 1.66499 0.0104698C1.5653 -0.00614678 1.46333 -0.00295875 1.36488 0.0198517C1.26643 0.0426621 1.17344 0.084648 1.09123 0.14341C1.00901 0.202172 0.939179 0.276558 0.885723 0.362318C0.832267 0.448078 0.796233 0.543531 0.779681 0.643223L0.01047 5.25849C0.00929597 5.26568 0.00901435 5.27276 0.00798169 5.2799C0.00610385 5.2937 0.00436617 5.30755 0.00319216 5.32159C0.00201911 5.33558 0.00150188 5.34948 0.00107689 5.36338C0.000892281 5.37061 0 5.3777 0 5.38497C0 5.39183 0.000469324 5.39854 0.000516438 5.40535C0.000657781 5.41009 0.000657787 5.41479 0.000892397 5.41948C0.0101811 6.40157 0.360397 7.34992 0.991639 8.10232C1.62288 8.85472 2.49593 9.36444 3.46145 9.54427V19.2308C3.46145 19.4348 3.54249 19.6304 3.68675 19.7747C3.831 19.919 4.02666 20 4.23066 20C4.43467 20 4.63032 19.919 4.77458 19.7747C4.91883 19.6304 4.99987 19.4348 4.99987 19.2308V9.54427C5.9654 9.36444 6.83845 8.85472 7.46969 8.10232C8.10093 7.34991 8.45115 6.40157 8.46043 5.41948C8.46067 5.41478 8.46067 5.41009 8.46081 5.40535C8.46086 5.39854 8.46133 5.39183 8.46133 5.38497C8.46133 5.3777 8.46043 5.37061 8.46025 5.36338Z" fill="black"/>
<path d="M16.5373 0.756097C16.5371 0.740232 16.5362 0.724359 16.5349 0.708444C16.5341 0.697646 16.5331 0.686941 16.5318 0.676284C16.5301 0.662998 16.5281 0.64971 16.5257 0.636424C16.5234 0.623044 16.5208 0.609804 16.5178 0.596705C16.5153 0.586283 16.5126 0.575907 16.5097 0.565531C16.5055 0.550085 16.5009 0.534874 16.4957 0.51985C16.4942 0.515531 16.4933 0.511165 16.4917 0.506845C16.49 0.502197 16.4878 0.497878 16.486 0.493277C16.4802 0.478206 16.4739 0.463402 16.4672 0.448864C16.4629 0.439377 16.4584 0.430018 16.4537 0.420787C16.4474 0.408393 16.4407 0.396202 16.4337 0.384214C16.4275 0.373464 16.4212 0.3629 16.4145 0.352524C16.4081 0.342759 16.4015 0.333275 16.3948 0.323791C16.3866 0.312335 16.3784 0.301114 16.3697 0.290222C16.3633 0.282195 16.3566 0.274448 16.3499 0.266701C16.3403 0.255621 16.3305 0.244682 16.3204 0.234212C16.3132 0.226888 16.3058 0.219846 16.2984 0.212804C16.2881 0.203039 16.2778 0.193461 16.2671 0.184306C16.2584 0.176935 16.2495 0.169987 16.2405 0.162991C16.2304 0.155198 16.2204 0.147451 16.2099 0.140127C16.1993 0.132662 16.1883 0.125667 16.1773 0.118765C16.1679 0.1129 16.1586 0.106981 16.1489 0.101535C16.1364 0.0943984 16.1236 0.0878256 16.1106 0.081394C16.1018 0.0769807 16.0929 0.0725672 16.0839 0.0684827C16.0703 0.062379 16.0564 0.0568397 16.0424 0.051487C16.0331 0.0479659 16.0238 0.0444449 16.0143 0.0412527C16.0009 0.036698 15.9873 0.0327077 15.9735 0.0289049C15.9625 0.0258531 15.9516 0.0229896 15.9405 0.020407C15.9283 0.0176368 15.9159 0.0152426 15.9035 0.013036C15.89 0.0105947 15.8765 0.00852942 15.8629 0.00683908C15.8524 0.00557084 15.8419 0.0045381 15.8313 0.00364582C15.8156 0.00237854 15.7997 0.00158063 15.7838 0.00125179C15.7788 0.00115852 15.7739 0.000500789 15.7688 0.000500789C15.7641 0.000500789 15.7596 0.00111139 15.755 0.00120466C15.7392 0.00148638 15.7234 0.00233155 15.7076 0.00359979C15.6968 0.00444496 15.686 0.00542658 15.6753 0.00674481C15.662 0.00838804 15.6488 0.0104543 15.6355 0.0128023C15.6221 0.0151494 15.6089 0.017732 15.5958 0.0207829C15.5854 0.0231771 15.575 0.0259001 15.5646 0.0287635C15.5492 0.0329884 15.534 0.0376364 15.5189 0.0428478C15.5146 0.0443036 15.5103 0.045242 15.5059 0.0467901C15.4964 0.050264 15.4871 0.0543955 15.4777 0.0579166C15.4741 0.0593714 15.4704 0.0606398 15.4669 0.0621416C13.4852 0.806893 11.8982 3.23796 10.75 7.29064C10.2291 9.16073 9.85118 11.0677 9.61952 12.9951C9.60802 13.1024 9.61924 13.211 9.65243 13.3137C9.68563 13.4163 9.74006 13.5109 9.81219 13.5912C9.88432 13.6715 9.97254 13.7357 10.0711 13.7796C10.1697 13.8236 10.2764 13.8463 10.3843 13.8463H14.9996V19.2308C14.9996 19.4348 15.0806 19.6304 15.2249 19.7747C15.3691 19.919 15.5648 20 15.7688 20C15.9728 20 16.1685 19.919 16.3127 19.7747C16.457 19.6304 16.538 19.4348 16.538 19.2308V0.769712C16.538 0.765111 16.5374 0.760698 16.5373 0.756097Z" fill="black"/>
</svg>
